Coordinates
version=1
nRows=15
nColumns=42
inDegrees=yes

Units are S.I. units (second, meters, Newtons, ...)
If the header above contains a line with 'inDegrees', this indicates whether rotational values are in degrees (yes) or radians (no).

endheader
time	pelvis_tilt	pelvis_list	pelvis_rotation	pelvis_tx	pelvis_ty	pelvis_tz	hip_flexion_r	hip_adduction_r	hip_rotation_r	knee_angle_r	knee_adduction_r	knee_angle_r_beta	ankle_angle_r	subtalar_angle_r	mtp_angle_r	hip_flexion_l	hip_adduction_l	hip_rotation_l	knee_angle_l	knee_adduction_l	knee_angle_l_beta	ankle_angle_l	subtalar_angle_l	mtp_angle_l	lumbar_extension	lumbar_bending	lumbar_rotation	arm_flex_r	arm_add_r	arm_rot_r	elbow_flex_r	pro_sup_r	wrist_flex_r	wrist_dev_r	arm_flex_l	arm_add_l	arm_rot_l	elbow_flex_l	pro_sup_l	wrist_flex_l	wrist_dev_l
      1.46000000	      1.72411919	     -5.46940132	      4.44144138	     -0.64421672	      0.95623471	      0.30884062	     13.53858789	      2.03140982	    -10.54116357	      6.31941487	      5.73134688	      0.11029460	     -2.59308959	      6.17223653	     -7.54850642	    -17.75163313	     -7.08073992	     -7.25477758	     16.72789448	      0.56328263	      0.29195684	     11.29109792	     19.06551064	     -7.54850642	     -5.05421904	     10.89970493	     -8.99155801	    -11.77071506	    -11.01271968	      0.41257032	     21.47055678	     90.00000001	      0.00000000	      0.00000000	      4.26946211	    -18.13578806	     19.58678694	     43.39239634	     90.00000001	      0.00000000	      0.00000000
      1.47000000	      1.75518921	     -5.48887721	      4.31254910	     -0.63270026	      0.95846263	      0.30967356	     12.82460988	      2.08000738	    -10.03653970	      6.43691061	      5.93819214	      0.11234528	     -2.24152476	      6.28381715	     -7.54770939	    -17.08724220	     -7.37818987	     -7.22232336	     19.00146108	      0.62131513	      0.33163806	      8.93805841	     18.39156355	     -7.54770939	     -5.06939786	     11.04080697	     -8.67459518	    -11.61368885	    -11.07781884	      0.37327512	     21.38395142	     90.00000001	      0.00000000	      0.00000000	      3.58180974	    -17.90867450	     19.71663034	     43.24045595	     90.00000001	      0.00000000	      0.00000000
      1.48000000	      1.69752120	     -5.52247588	      4.15291935	     -0.62127114	      0.96065192	      0.31058049	     12.14397149	      2.18701363	     -9.54013486	      6.43328173	      6.11047407	      0.11228195	     -1.87700502	      6.38251711	     -7.54688714	    -16.09159334	     -7.70786239	     -7.14356261	     21.62275082	      0.69707053	      0.37738820	      6.40938721	     17.58633258	     -7.54688714	     -4.99361799	     11.17817080	     -8.31383269	    -11.42133670	    -11.14817294	      0.29249921	     21.30309626	     90.00000001	      0.00000000	      0.00000000	      2.85357771	    -17.63976554	     19.77414736	     43.05409004	     90.00000001	      0.00000000	      0.00000000
      1.49000000	      1.66889794	     -5.48543534	      3.95914830	     -0.61005528	      0.96284187	      0.31159561	     11.40031788	      2.25610678	     -9.08014749	      6.35613667	      6.24291916	      0.11093551	     -1.48499229	      6.51857352	     -7.54612320	    -14.92887672	     -8.00177665	     -6.98898682	     24.48890473	      0.83268559	      0.42741202	      3.71350526	     16.72519725	     -7.54612320	     -4.99278413	     11.22107471	     -7.91088565	    -11.20750688	    -11.19235304	      0.19968933	     21.30769764	     90.00000001	      0.00000000	      0.00000000	      2.15712493	    -17.37381369	     19.79610323	     42.85797548	     90.00000001	      0.00000000	      0.00000000
      1.50000000	      1.19858838	     -5.65587488	      3.70629148	     -0.59912897	      0.96441883	      0.31279673	     11.05707348	      2.61788857	     -8.35075112	      5.99939760	      6.28208919	      0.10470924	     -1.41146177	      6.00924837	     -7.54414691	    -12.96501333	     -8.50684166	     -6.93327758	     27.82590105	      0.89769054	      0.48565359	      0.97754775	     15.27710977	     -7.54414691	     -4.49254981	     11.45278361	     -7.51991686	    -10.92059020	    -11.24736527	     -0.24014992	     21.17288709	     90.00000001	      0.00000000	      0.00000000	      1.38169808	    -17.07459098	     19.69914266	     42.59327804	     90.00000001	      0.00000000	      0.00000000
      1.51000000	      1.35919261	     -5.50327081	      3.56779926	     -0.58810896	      0.96650730	      0.31354878	      9.98404341	      2.59940191	     -8.09892543	      5.68773591	      6.34114970	      0.09926972	     -0.90152671	      6.28227667	     -7.54337410	    -11.68873329	     -8.62304078	     -6.81026150	     30.90404914	      0.80414610	      0.53937741	     -1.85139314	     14.15941852	     -7.54337410	     -4.73098856	     11.37338687	     -7.10974452	    -10.69950902	    -11.34186074	     -0.34031446	     21.35437263	     90.00000001	      0.00000000	      0.00000000	      0.72768784	    -16.83583037	     19.72351117	     42.41972822	     90.00000001	      0.00000000	      0.00000000
      1.52000000	      1.24114276	     -5.51042037	      3.34812775	     -0.57744208	      0.96803279	      0.31469810	      9.24860348	      2.78937124	     -7.79600584	      5.33183885	      6.36526278	      0.09305814	     -0.58945378	      6.57031252	     -7.54234345	     -9.94057850	     -8.94297265	     -6.54705876	     34.19490803	      0.86506179	      0.59681373	     -4.48524916	     12.32306635	     -7.54234345	     -4.67002173	     11.40928790	     -6.64499201	    -10.45650590	    -11.42779559	     -0.44891403	     21.52132296	     90.00000001	      0.00000000	      0.00000000	      0.06924976	    -16.63499638	     19.68190902	     42.25517201	     90.00000001	      0.00000000	      0.00000000
      1.53000000	      1.07362119	     -5.50451305	      3.17047580	     -0.56706623	      0.96927547	      0.31591450	      8.61031681	      2.98817620	     -7.58070708	      5.04021281	      6.32217631	      0.08796831	     -0.31078034	      6.74977992	     -7.54086030	     -8.05676794	     -9.24660836	     -6.01956033	     37.44742374	      1.04705885	      0.65358084	     -6.54814042	      9.88118750	     -7.54086030	     -4.57765181	     11.40459105	     -6.20115660	    -10.21002930	    -11.49806799	     -0.53111786	     21.75204263	     90.00000001	      0.00000000	      0.00000000	     -0.55387759	    -16.42917682	     19.55577457	     42.04099684	     90.00000001	      0.00000000	      0.00000000
      1.54000000	      1.14228920	     -5.41003788	      2.98214096	     -0.55686370	      0.97055043	      0.31684850	      7.69892499	      3.04011146	     -7.51357905	      4.70985603	      6.34529347	      0.08220249	      0.13185357	      7.21041952	     -7.53978191	     -6.40288567	     -9.38256893	     -5.81927883	     40.53678547	      0.94810282	      0.70750037	     -8.05903576	      7.88141070	     -7.53978191	     -4.78907668	     11.32530923	     -5.76382726	     -9.87628564	    -11.63795836	     -0.51666606	     22.12635623	     90.00000001	      0.00000000	      0.00000000	     -1.12561011	    -16.23796136	     19.47023355	     41.86122963	     90.00000001	      0.00000000	      0.00000000
      1.55000000	      1.10275839	     -5.32363149	      2.83798081	     -0.54698932	      0.97153595	      0.31782388	      7.02419742	      3.10336389	     -7.59068272	      4.59135631	      6.31104839	      0.08013428	      0.59099516	      7.69718868	     -7.53790768	     -4.57808944	     -9.52186231	     -5.39402956	     43.53261249	      0.99311894	      0.75978742	     -8.88820640	      5.23052785	     -7.53790768	     -4.89322037	     11.22876545	     -5.37154097	     -9.54024989	    -11.80608770	     -0.29126953	     22.52746128	     90.00000001	      0.00000000	      0.00000000	     -1.65083370	    -16.03345040	     19.29768027	     41.58661396	     90.00000001	      0.00000000	      0.00000000
      1.56000000	      1.21819532	     -5.21291473	      2.67250715	     -0.53712414	      0.97247646	      0.31892031	      6.15728115	      3.12809400	     -7.59550797	      4.42051174	      6.32121882	      0.07715248	      1.12122771	      8.36640057	     -7.53651550	     -2.91758119	     -9.62829979	     -5.54906486	     46.31073149	      0.62058005	      0.80827474	     -9.20448923	      3.32282795	     -7.53651550	     -5.17627477	     11.07387138	     -4.93049376	     -9.18971517	    -11.94859371	     -0.05023667	     23.00373292	     90.00000001	      0.00000000	      0.00000000	     -2.13736140	    -15.89355280	     19.18162063	     41.33441499	     90.00000001	      0.00000000	      0.00000000
      1.57000000	      1.52973805	     -4.99177864	      2.55965899	     -0.52725382	      0.97355497	      0.31978527	      5.06781059	      2.98821925	     -7.58272880	      4.25890391	      6.40093938	      0.07433190	      1.73522525	      8.82953832	     -7.53588813	     -1.52416098	     -9.56561498	     -6.00642803	     48.75002002	     -0.04504124	      0.85084836	     -8.71252721	      2.01126590	     -7.53588813	     -5.67302774	     10.80107059	     -4.54703834	     -8.75859625	    -12.08050742	      0.06064399	     23.43930323	     90.00000001	      0.00000000	      0.00000000	     -2.57203470	    -15.76837585	     19.14370384	     41.02105328	     90.00000001	      0.00000000	      0.00000000
      1.58000000	      1.48946769	     -4.90717675	      2.34765262	     -0.51783828	      0.97418884	      0.32095797	      4.50544896	      3.04347136	     -7.44106226	      4.26716086	      6.34842180	      0.07447601	      2.27856529	      9.38539677	     -7.53463333	      0.31681013	     -9.71922809	     -6.43116803	     51.11224379	     -0.49858730	      0.89207694	     -8.25602299	      0.33494365	     -7.53463333	     -5.81281181	     10.62413603	     -4.09871055	     -8.37507712	    -12.27696983	      0.49837419	     23.98428981	     90.00000001	      0.00000000	      0.00000000	     -2.99006080	    -15.60332431	     19.00537734	     40.60617281	     90.00000001	      0.00000000	      0.00000000
      1.59000000	      1.88686295	     -4.58769818	      2.19689772	     -0.50844479	      0.97536411	      0.32198953	      3.48731059	      2.78839673	     -7.35801159	      4.36390173	      6.42016525	      0.07616445	      2.72378222	      9.58969755	     -7.53424299	      1.53828168	     -9.58451537	     -6.80252758	     52.92563800	     -0.93552386	      0.92372664	     -7.34481900	     -0.25841459	     -7.53424299	     -6.46074021	     10.18926963	     -3.68907461	     -7.81543337	    -12.34258106	      0.57915719	     24.38116022	     90.00000001	      0.00000000	      0.00000000	     -3.33203862	    -15.54395311	     18.99826670	     40.26165737	     90.00000001	      0.00000000	      0.00000000
      1.60000000	      2.02085746	     -4.37044042	      2.06255055	     -0.49881840	      0.97616355	      0.32285530	      2.64853432	      2.66939167	     -7.00772724	      4.23353640	      6.41183696	      0.07388915	      3.47159525	      9.86662195	     -7.53366331	      3.06071277	     -9.47391673	     -7.56970595	     54.53391493	     -1.78689965	      0.95179637	     -5.92896225	     -1.13780697	     -7.53366331	     -6.72008928	      9.85679782	     -3.37765846	     -7.34064954	    -12.51513713	      0.76469449	     24.86931765	     90.00000001	      0.00000000	      0.00000000	     -3.73621283	    -15.39432495	     19.00399836	     39.68588561	     90.00000001	      0.00000000	      0.00000000
